<?xml version="1.0" encoding="UTF-8"?>
<svg id="Layer_1" data-name="Layer 1" xmlns="http://www.w3.org/2000/svg" viewBox="0 0 142.2 142.2">
  <defs>
    <style>
      .cls-1 {
        stroke: #fff;
        stroke-linecap: round;
        stroke-linejoin: round;
        stroke-width: 4px;
      }

      .cls-1, .cls-2 {
        fill: #fff;
      }

      .cls-3 {
        fill: #d4af37;
      }
    </style>
  </defs>
  <circle class="cls-3" cx="110.03" cy="117.4" r="8.47"/>
  <g>
    <path class="cls-2" d="M102.4,31.4l-27.8-19.4c-2.3-1.6-5.5-1.6-7.9,0l-27.7,19.4c-2.7,1.9-2.7,5.9,0,7.8l28.1,19.7c2.1,1.5,5,1.5,7.1,0l28.2-19.7c2.7-1.9,2.7-5.9,0-7.8ZM90.17,37.74c-7.31,2.67-12.2,5.93-17.32,12.1-1.29.92-3.07.92-4.36,0-4.78-5.76-10.67-9.28-17.26-12.1-1.66-1.17-1.66-3.62,0-4.79,5.92-2.4,12.7-6.43,17.01-11.91,1.47-.98,3.44-.98,4.85,0,4.65,5.77,10.28,9.85,17.07,11.91,1.66,1.17,1.66,3.62,0,4.79Z"/>
    <path class="cls-1" d="M53.86,69.89c-8.1-5.79-23.38-15.52-23.38-15.52-1.6-.98-3.83.18-3.83,2.05l1.67,27c0,4.09,2.14,7.92,5.79,10.15,16.97,6.09,20.51,15.4,21.53,29.25,0,3.48,5.35,3.48,5.35,0v-39.04c0-5.52-2.58-10.68-7.12-13.88ZM56.44,97.78c0,5.44-2.59,4.52-3.86,2.89-2.28-5.11-8.19-8.62-15.25-11.7-2.64-1.19-4.48-4.29-4.48-6.48l-1-16.5c0-1,1.4-3.02,2.56-2.5,0,0,11.11,7.62,16.89,11.79,3,2.16,5.14,4.43,5.14,8.43v14.07Z"/>
    <path class="cls-1" d="M80.42,83.77v39.04c0,3.48,5.35,3.48,5.35,0,1.02-13.85,4.55-23.17,21.53-29.25,3.65-2.22,5.79-6.05,5.79-10.15l1.67-27c0-1.87-2.23-3.03-3.83-2.05,0,0-15.28,9.73-23.38,15.52-4.54,3.2-7.12,8.37-7.12,13.88ZM84.96,83.7c0-4,2.14-6.27,5.14-8.43,5.78-4.17,16.89-11.79,16.89-11.79,1.16-.52,2.56,1.51,2.56,2.5l-1,16.5c0,2.18-1.85,5.29-4.48,6.48-7.05,3.09-12.96,6.59-15.25,11.7-1.27,1.63-3.86,2.56-3.86-2.89v-14.07Z"/>
  </g>
  <path class="cls-2" d="M102.4,31.4l-27.8-19.4c-2.3-1.6-5.5-1.6-7.9,0l-27.7,19.4c-2.7,1.9-2.7,5.9,0,7.8l28.1,19.7c2.1,1.5,5,1.5,7.1,0l28.2-19.7c2.7-1.9,2.7-5.9,0-7.8ZM90.17,37.74l-17.32,12.1c-1.29.92-3.07.92-4.36,0l-17.26-12.1c-1.66-1.17-1.66-3.62,0-4.79l17.01-11.91c1.47-.98,3.44-.98,4.85,0l17.07,11.91c1.66,1.17,1.66,3.62,0,4.79Z"/>
</svg>