<?xml version="1.0" encoding="UTF-8"?>
<svg id="Layer_1" data-name="Layer 1" xmlns="http://www.w3.org/2000/svg" viewBox="0 0 139.6 142.2">
  <defs>
    <style>
      .cls-1 {
        stroke-miterlimit: 10;
      }

      .cls-1, .cls-2 {
        fill: none;
        stroke: #fff;
        stroke-width: 5.19px;
      }

      .cls-2 {
        stroke-linecap: round;
        stroke-linejoin: bevel;
      }

      .cls-3 {
        fill: #c36;
      }
    </style>
  </defs>
  <circle class="cls-3" cx="94.3" cy="120.5" r="6.1"/>
  <g>
    <path class="cls-1" d="M73.3,13l27.8,19.4c2.7,1.9,2.7,5.9,0,7.8l-28.2,19.7c-2.1,1.5-5,1.5-7.1,0l-28.1-19.7c-2.7-1.9-2.7-5.9,0-7.8l27.7-19.4c2.4-1.6,5.6-1.6,7.9,0Z"/>
    <path class="cls-2" d="M76.2,112.3s22.2-13.4,30.1-18.3c4.1-2.5,6.5-6.8,6.5-11.4v-30.5c0-2.1-2.5-3.4-4.3-2.3,0,0-15.3,11.1-24.4,17.6-5.1,3.6-8,9.4-8,15.6v47.6"/>
    <path class="cls-2" d="M62.6,112.3s-22.2-13.4-30.1-18.3c-4.1-2.5-6.5-6.8-6.5-11.4v-30.5c0-2.1,2.5-3.4,4.3-2.3,0,0,15.3,11.1,24.4,17.6,5.1,3.6,8,9.4,8,15.6v47.6"/>
  </g>
</svg>